# xmcd
#
# Track frame offsets: 
#        183
#        11833
#        31458
#        50420
#        63720
#        78033
#        91670
#        105883
#        119333
#        134120
#        148595
#        177295
#        207983
#        235920
#
# Disc length: 3444 seconds
#
# Revision: 1
# Processed by: cddbd v1.5.2PL0 Copyright (c) Steve Scherf et al.
# Submitted via: ExactAudioCopy v0.99pb4
#
DISCID=bd0d720e
DTITLE=Various Artist - The Zillion Jazz Sampler
DYEAR=1991
DGENRE=Jazz
TTITLE0=Benny Goodman - Stompin' At The Savoy
TTITLE1=Coleman Hawkins - Sweet Lorraine
TTITLE2=Lester Young - I Got Rhythm
TTITLE3=J.P. Johnson - Blues For Fats
TTITLE4=Earl Hines Trio - Squeeze Me
TTITLE5=Erroll Garner - Yesterdays
TTITLE6=Ben Webster - Frog And Mule
TTITLE7=Anita O'Day - I Told Ya I Love Ya, Now Get Out!
TTITLE8=Duke Ellington - In A Mellow Tone (Take 1)
TTITLE9=Duke Ellington - Jump For Joy (Vocal By Ray Nance)
TTITLE10=Bobby Hacket - Ja-Da
TTITLE11=Teresa Brewer - Tommy Dorsey Medley
TTITLE12=Pharoah Sanders - Polka Dots And Moonbeams
TTITLE13=Lonnie Liston Smith - Once Again Love
EXTD=
EXTT0=
EXTT1=
EXTT2=
EXTT3=
EXTT4=
EXTT5=
EXTT6=
EXTT7=
EXTT8=
EXTT9=
EXTT10=
EXTT11=
EXTT12=
EXTT13=
PLAYORDER=
